<svg width="131" height="131" viewBox="0 0 131 131" fill="none" xmlns="http://www.w3.org/2000/svg">
<path d="M131 65.5C131 101.675 101.675 131 65.5 131C29.3253 131 0 101.675 0 65.5C0 29.3253 29.3253 0 65.5 0C101.675 0 131 29.3253 131 65.5Z" fill="#FB9D56"/>
<path d="M82.6663 56.6667C82.6663 61.0869 80.9104 65.3262 77.7848 68.4518C74.6592 71.5774 70.4199 73.3333 65.9997 73.3333C61.5794 73.3333 57.3402 71.5774 54.2146 68.4518C51.089 65.3262 49.333 61.0869 49.333 56.6667C49.333 52.2464 51.089 48.0072 54.2146 44.8816C57.3402 41.7559 61.5794 40 65.9997 40C70.4199 40 74.6592 41.7559 77.7848 44.8816C80.9104 48.0072 82.6663 52.2464 82.6663 56.6667Z" fill="black"/>
<path fill-rule="evenodd" clip-rule="evenodd" d="M64.2997 106.633C42.0768 105.742 24.333 87.4417 24.333 65C24.333 41.9875 42.9872 23.3333 65.9997 23.3333C89.0122 23.3333 107.666 41.9875 107.666 65C107.666 88.0125 89.0122 106.667 65.9997 106.667C65.8094 106.668 65.6191 106.668 65.4288 106.667C65.0518 106.667 64.6747 106.654 64.2997 106.633ZM39.2622 91.2917C38.9506 90.397 38.8446 89.4437 38.9519 88.5025C39.0593 87.5612 39.3772 86.6563 39.8821 85.8547C40.3871 85.0532 41.0661 84.3757 41.8687 83.8724C42.6713 83.3692 43.577 83.0532 44.5184 82.9479C60.7601 81.15 71.3393 81.3125 87.5018 82.9854C88.4445 83.0836 89.3524 83.3956 90.1563 83.8977C90.9602 84.3998 91.6389 85.0787 92.1408 85.8827C92.6427 86.6868 92.9545 87.5947 93.0524 88.5375C93.1503 89.4802 93.0318 90.4329 92.7059 91.3229C99.6329 84.3144 103.512 74.8541 103.5 65C103.5 44.2896 86.7101 27.5 65.9997 27.5C45.2893 27.5 28.4997 44.2896 28.4997 65C28.4997 75.2417 32.6059 84.525 39.2622 91.2917Z" fill="black"/>
</svg>
